<svg xmlns="http://www.w3.org/2000/svg" version="1.0" viewBox="0 0 1000 1000"><path d="M319 238c-7 3-14 10-17 17l-2 6v477l3 6c3 7 10 14 17 17 8 3 21 4 28 0 7-3 14-10 18-17l2-6 1-106c1-115 0-108 6-117 7-9 17-14 28-14 8-1 13 1 20 5 6 5 11 11 13 19 2 6 2 9 2 56 0 43 0 50 2 55 5 15 18 24 35 23 13-1 23-8 29-20l2-6 1-109 1-109 3-5c8-16 27-24 43-17 8 3 16 11 19 19l3 5v126l1 126 2 5c3 7 10 14 17 17 6 3 21 4 28 0 7-3 14-10 18-17l3-7V491c1-193 0-178 7-186 4-5 9-7 19-9 11-1 16-4 22-10 13-16 7-41-12-48l-6-2H500c-175 0-175 0-181 2zm161 292c8 4 10 8 10 30 0 19-1 22-5 27-7 7-16 7-23 1-5-4-6-7-6-28 0-20 1-23 6-27 5-5 11-6 18-3z"/><path d="M466 676c-2 0-4 2-5 4l-3 3v41l4 4c4 4 4 4 11 4 5 0 7-1 9-3 5-5 5-7 5-25 0-20-1-23-7-27-3-2-10-3-14-1zM605 707c-5 1-10 5-12 11-6 12 4 27 18 27 17 0 26-18 16-32-3-4-11-8-15-8l-7 2z"/></svg>